<svg xmlns="http://www.w3.org/2000/svg" width="304" height="203" alt="Logo SKNI"><path style="stroke:none;fill-rule:nonzero;fill:#000;fill-opacity:1" d="M107.125 202.863c-2.637-.093-2.984-.129-6.344-.629-2.87-.43-3.812-.605-4.277-.793a3.917 3.917 0 0 0-.867-.21 4.266 4.266 0 0 1-.953-.254 4.355 4.355 0 0 0-1.036-.262c-.328-.04-.722-.137-.875-.211-.152-.078-.503-.184-.785-.238-.281-.055-.617-.184-.754-.29a1.746 1.746 0 0 0-.636-.261c-.215-.035-.446-.125-.504-.2-.063-.074-.297-.167-.524-.202a3.66 3.66 0 0 1-.863-.31c-.246-.132-.531-.241-.637-.241-.101 0-.468-.114-.812-.258-.574-.238-1.188-.527-4.086-1.934-.586-.285-1.086-.515-1.113-.515-.028 0-.454-.246-.942-.551-.492-.3-1.097-.668-1.344-.809-2.242-1.28-3.937-2.433-6.296-4.277-1.766-1.379-2.27-1.781-2.372-1.887-.054-.058-.253-.25-.44-.426a9.474 9.474 0 0 1-.5-.507c-.09-.106-.353-.274-.587-.375-.234-.102-.426-.243-.426-.309s-.394-.531-.875-1.031c-1.382-1.438-3.261-3.465-3.48-3.762-.113-.152-.367-.45-.57-.668-.332-.348-.754-.898-1.387-1.793a150.85 150.85 0 0 0-1.824-2.45 8.09 8.09 0 0 1-.442-.66c-.09-.167-.203-.323-.246-.355-.043-.027-.168-.257-.277-.511-.11-.258-.246-.496-.305-.532-.059-.035-.27-.343-.469-.687-.195-.344-.601-1.028-.898-1.524-.293-.5-.746-1.332-1.004-1.855-.723-1.48-1.227-2.527-1.39-2.91a4.861 4.861 0 0 0-.25-.5c-.212-.34-.712-1.504-.712-1.664 0-.094-.086-.309-.191-.48a2.554 2.554 0 0 1-.266-.716 3.507 3.507 0 0 0-.308-.84c-.13-.246-.235-.515-.235-.605 0-.09-.086-.32-.187-.512a3.395 3.395 0 0 1-.262-.699 2.103 2.103 0 0 0-.207-.57c-.078-.117-.187-.52-.246-.89-.059-.368-.176-.802-.258-.962-.082-.16-.187-.574-.234-.918a6.077 6.077 0 0 0-.195-.922c-.254-.687-.72-2.793-.817-3.718a60.5 60.5 0 0 0-.351-2.45c-.13-.8-.266-2.042-.301-2.757-.035-.72-.125-2.16-.203-3.211-.098-1.27-.145-3.528-.145-6.782 0-2.683-.054-6.023-.12-7.421a148.81 148.81 0 0 1-.126-2.996c-.004-.56.219-1.122.426-1.083.14.028.238.16.773 1.07.825 1.403 2.309 3.075 3.149 3.54.23.129.59.324.793.433.207.114.484.282.617.38.133.093.367.175.52.175.148 0 .355.086.453.195.101.106.398.243.664.301.261.059.578.172.699.25.117.078.488.188.82.242.328.055.766.168.973.258.203.086.52.156.699.156.184 0 .848.094 1.484.204 1.282.222 3.93.347 9.465.449 1.875.031 3.633.097 3.91.14 2.07.336 2.618.442 2.715.524.063.05.356.164.653.25.293.09.656.258.808.375.149.117.383.293.524.39.336.239.863 1.063 1.27 1.981.32.723.331.8.335 2.055 0 1.261-.008 1.328-.316 1.98-.176.375-.36.68-.407.68-.046 0-.16.156-.253.351-.09.192-.493.692-.887 1.106-.938.98-1.742 1.531-3.492 2.398-1.204.598-1.563.758-1.727.758-.086 0-.398.11-.691.25-.297.137-.672.25-.836.25-.168.004-.492.09-.723.195a3.867 3.867 0 0 1-.902.258 11.85 11.85 0 0 0-1.18.25c-.387.098-.996.211-1.355.246a59.27 59.27 0 0 0-2.051.27c-1.207.176-1.7.2-3.508.148-1.32-.035-2.602-.133-3.441-.261-.735-.114-1.54-.204-1.786-.204-.41 0-.457.028-.582.325-.117.285-.324 1.437-.34 1.882-.167 5.012-.105 8.008.204 10.008.148.969.273 1.067 1.554 1.184 1.493.137 6.34.113 7.395-.04a39.31 39.31 0 0 1 2.254-.218c.746-.047 1.511-.152 1.703-.234.195-.078.668-.176 1.055-.211a13.983 13.983 0 0 0 1.55-.262c2.973-.672 4.551-1.09 5.961-1.57.883-.301 1.852-.625 2.157-.719.304-.09.664-.246.796-.34.137-.098.329-.176.422-.176.094 0 .297-.113.446-.254.148-.136.375-.25.507-.25.133 0 .41-.09.614-.199.203-.11.527-.27.722-.351.301-.133.95-.504 2.278-1.309.18-.105.351-.273.383-.363.027-.094.218-.227.425-.29.59-.19 2.547-1.804 2.676-2.202.031-.098.176-.207.328-.246.254-.063.914-.625 1.535-1.305.746-.817 1.329-1.54 1.493-1.856.101-.195.273-.406.382-.472.11-.067.23-.258.266-.426.04-.168.105-.305.148-.305.086 0 .387-.453.754-1.129.532-.98 1.055-2.066 1.055-2.195 0-.078.063-.23.137-.34.074-.11.21-.469.3-.8.09-.329.223-.829.301-1.106.774-2.805.703-7.55-.144-9.852-.106-.293-.196-.656-.196-.804 0-.153-.085-.434-.19-.63a5.073 5.073 0 0 1-.294-.702c-.144-.485-.543-1.422-.73-1.707a1.948 1.948 0 0 1-.22-.5 1.466 1.466 0 0 0-.265-.489c-.113-.129-.203-.293-.203-.363s-.113-.262-.25-.426c-.14-.164-.25-.34-.25-.39 0-.164-1.2-1.68-1.492-1.887-.16-.11-.441-.399-.625-.645-.871-1.136-3.738-2.816-5.75-3.367-2.18-.597-3.45-.847-5.059-.996-2.46-.223-3.12-.258-7.265-.363-2.149-.055-4.176-.14-4.508-.188-.578-.082-2.07-.32-2.906-.465a3.033 3.033 0 0 1-.672-.207c-.414-.207-1.438-1.304-1.559-1.668a43.367 43.367 0 0 0-.37-1.023 6.344 6.344 0 0 1-.321-1.457c-.059-.754.015-1.063.492-2.078.164-.34.977-1.266 1.45-1.645.882-.707 2.78-1.718 3.636-1.937.3-.078.754-.207 1-.29.672-.222 2.652-.648 3.508-.757 2.457-.309 2.863-.328 5.46-.281 1.489.027 3 .101 3.356.16.36.062.934.14 1.274.176.59.062.628.05.73-.176.164-.371.402-2.094.516-3.75.058-.844.078-2.715.043-4.262-.063-3.09-.2-4.097-.594-4.496l-.238-.238-3.547.008c-3.309.007-4.227.054-6.399.312-.468.055-1.078.102-1.355.102-.278 0-.75.07-1.051.156-.305.082-1.082.219-1.738.3-.653.083-1.27.196-1.371.25-.102.051-.532.165-.953.247-.422.078-.82.187-.883.238-.063.055-.383.145-.715.207-.875.16-3.344.93-4.356 1.363a6.977 6.977 0 0 1-.855.305c-.164.04-.367.125-.45.191-.081.067-.308.18-.5.254-.433.172-2.199 1.082-2.406 1.246a2.22 2.22 0 0 1-.43.239c-.152.062-.523.3-.82.52-.3.222-.585.402-.632.402-.051 0-.426.28-.84.625-1.938 1.632-3.535 3.285-3.942 4.086-.257.511-.652 1.003-.804 1.003-.149 0-.336-.503-.356-.953-.008-.164.04-1.652.098-3.308.07-1.914.11-10.567.113-23.817 0-17.16.024-21.144.145-22.715.078-1.046.172-2.515.207-3.257.035-.746.172-1.989.304-2.758a55.02 55.02 0 0 0 .348-2.434 13.55 13.55 0 0 1 .305-1.758c.105-.398.242-.949.3-1.226.06-.274.172-.68.247-.902.074-.22.164-.625.203-.903.035-.273.125-.617.199-.761.078-.145.188-.563.242-.922.059-.364.172-.786.25-.942.078-.156.211-.484.29-.734.32-.988.5-1.469.667-1.805.094-.191.207-.508.25-.703.04-.191.156-.492.262-.664.105-.172.187-.395.187-.492 0-.219.274-.824 1.637-3.656.36-.747.77-1.602.91-1.907.145-.3.395-.754.559-1.004a6.77 6.77 0 0 0 .465-.8c.09-.192.191-.375.234-.403.102-.07 1.016-1.574 1.649-2.715.199-.359.253-.437 1.09-1.515.288-.367.636-.832.773-1.031.7-1.008 1.7-2.329 1.98-2.61.14-.14.352-.383.465-.543.23-.305 2.07-2.3 3.492-3.773.48-.5.875-.965.875-1.032 0-.07.192-.207.426-.312.234-.102.496-.27.586-.371.086-.102.313-.332.5-.508.188-.18.387-.371.441-.43.102-.101.606-.504 2.372-1.882 2.359-1.848 4.054-3 6.296-4.282.247-.14.852-.504 1.344-.808.488-.301.914-.551.942-.551.027 0 .527-.23 1.113-.512C86.07 5 86.684 4.711 87.258 4.47c.344-.14.71-.258.812-.258.106 0 .39-.106.637-.238.25-.133.637-.27.863-.309.227-.039.461-.129.524-.203.058-.074.289-.164.504-.203.215-.035.5-.153.636-.258.137-.105.473-.238.754-.29.282-.054.633-.16.785-.237.153-.078.547-.172.875-.215.332-.04.786-.156 1.012-.254.223-.106.653-.219.95-.258.3-.035.703-.133.894-.21.195-.079.691-.208 1.101-.29.805-.156 5.16-.8 6.415-.95C106.195.04 112.29 0 151.96 0c40.204 0 46.485.04 48.247.313.356.054 1.55.234 2.652.398 3.297.492 4.13.64 4.461.785.137.059.543.172.903.25 2.074.453 3.89.953 4.558 1.266.219.101.602.25.852.332.738.242 1.328.465 1.758.672.226.109.472.195.55.195.082 0 .282.074.446.164.164.086.527.227.8.309.278.082.555.195.622.25.16.128 1.433.738 1.742.832.133.039.308.132.394.199.082.07.328.183.551.254.219.07.508.21.637.312.133.106.414.235.633.293.214.059.672.293 1.011.52.664.441 1.004.652 1.875 1.183.305.184.598.383.653.446.054.058.347.23.652.379.695.34 1.695.988 1.941 1.265.106.117.239.215.293.215.055 0 .282.148.508.336.227.184.594.453.813.594.8.523 2.125 1.597 3.054 2.472.524.493 1.137 1.047 1.364 1.227.672.547.812.68 2.21 2.066.735.73 1.337 1.368 1.337 1.414 0 .043.418.516.93 1.043 1.343 1.395 1.913 2.059 2.027 2.364.054.144.254.425.441.617.184.191.445.508.574.703.348.508.95 1.324 1.238 1.676.137.168.34.453.45.636.113.184.25.415.312.516.059.098.18.258.266.356.09.093.191.3.23.453a.804.804 0 0 0 .239.402c.093.066.34.414.546.773.622 1.075.778 1.34.989 1.645.32.46 1.379 2.594 1.379 2.777 0 .09.066.223.148.293.082.067.152.172.152.235 0 .058.22.562.489 1.117.648 1.328.953 2.012 1.144 2.558.371 1.079.59 1.676.715 1.958.078.164.188.48.25.699.059.222.176.488.258.597.082.106.148.29.148.403 0 .113.09.375.2.578.109.207.25.7.312 1.101.063.403.176.86.258 1.016.082.156.187.563.242.902.05.34.156.778.234.97.211.526.72 3.183.907 4.714.09.742.21 1.512.265 1.703.055.191.16 1.344.239 2.559.078 1.21.183 2.86.238 3.66.055.8.125 4.297.156 7.77.086 9.421.2 13.382.414 14.617.047.277.016.449-.11.64-.116.184-.136.285-.058.332.063.04.102.184.09.324l-.02.254-.382-.168c-.211-.093-.41-.203-.446-.238-.039-.035-.074-.348-.082-.695-.007-.461-.07-.707-.222-.926-.145-.207-.235-.531-.282-1.047-.035-.41-.125-.863-.199-1.008a2.609 2.609 0 0 1-.199-.656 17.111 17.111 0 0 0-.254-1.148c-.187-.739-.57-2.414-.848-3.711a8.003 8.003 0 0 0-.285-1.004 4.428 4.428 0 0 1-.218-.903 4.92 4.92 0 0 0-.207-.902 6.086 6.086 0 0 1-.235-.926c-.875-3.062-1.61-6.12-2.41-9.152-.16-.605-.5-1.961-.754-3.008-.258-1.047-.531-2.11-.61-2.355a8.581 8.581 0 0 1-.234-1.106c-.101-.73-.433-1.554-.66-1.64-.144-.055-1.676.375-2.355.668-.192.082-.735.246-1.2.367-.468.12-1.417.367-2.105.55-.687.18-1.477.383-1.754.454-2.605 1.136-5.738 1.007-8.238 2.246-.156.082-.578.199-.934.265-.355.063-.699.16-.761.211-.063.055-.403.14-.75.196-.352.054-.797.16-.989.238-.195.082-.824.238-1.402.351-1.676.333-2.524.583-2.742.801-.2.196-.2.246-.082 1.535.066.73.183 1.543.265 1.805.078.262.176.758.211 1.106.227.777.371 2.023.719 2.73.086.164.21.547.281.852.156.687.403 1.402.711 2.066.13.281.235.582.235.664 0 .086.09.27.203.41.11.14.23.399.265.574.047.247.149.356.422.473.328.14.403.137.813-.02.25-.093.746-.253 1.101-.359.36-.101.79-.25.953-.332.817-.152 1.602-.597 2.407-.719.273-.039.73-.18 1.011-.312.563-.262 1.254-.313 1.43-.102.063.075.14.356.176.63.035.269.105.542.156.609.055.066.14.445.195.847.055.403.16.844.23.985.075.14.165.457.2.707.04.246.156.718.262 1.05.105.332.262.895.347 1.254.391 1.61.547 2.184.688 2.559.086.219.156.504.16.629 0 .125.113.578.246 1.004.133.426.363 1.246.516 1.828.148.578.37 1.41.496 1.851.129.442.285 1.07.351 1.399.067.328.184.777.262 1.004.082.222.207.699.285 1.058.164.79.383 1.598.707 2.63.137.425.246.878.246 1.003 0 .125.114.543.247.93.136.387.25.816.253.953 0 .137.075.387.16.55.438 1.13.637 2.524.993 3.622.137.422.25.855.25.957 0 .105.09.45.203.766.113.316.27.867.351 1.226.083.36.262 1.082.407 1.606.14.523.344 1.32.449 1.773.105.453.254 1.016.332 1.254.305 1.547 1.082 3.402 1.32 4.965.04.265.149.66.246.883.098.218.23.726.297 1.125.067.402.157.75.203.777.043.031.137.379.204.781.066.399.18.871.25 1.047.074.176.164.54.199.8.097.724.23 1.083.492 1.325.219.211.273.219.871.113 1.52-.265 4.188-.812 4.648-.953.274-.082.614-.152.754-.152.141 0 .434-.094.653-.203.531-.274 1.144-.371 1.156-.188.066.996-.047 30.989-.117 32.031-.055.77-.164 2.395-.242 3.61-.079 1.21-.188 2.387-.243 2.605-.054.223-.171.989-.261 1.707-.18 1.504-.7 4.164-.903 4.633-.078.176-.172.559-.207.852-.039.293-.152.746-.254 1.008-.101.257-.23.77-.289 1.132-.058.364-.195.825-.3 1.028-.11.203-.2.46-.2.574a.82.82 0 0 1-.14.402c-.075.11-.207.43-.29.711-.081.281-.199.598-.261.703-.102.176-.336.825-.676 1.844-.164.492-.254.7-1.078 2.414-.309.637-.559 1.207-.559 1.266 0 .058-.066.156-.14.222-.078.063-.168.227-.203.364-.059.238-.63 1.433-1.024 2.152-.367.66-.777 1.352-.84 1.402-.035.028-.234.368-.449.754-.21.383-.465.758-.562.828-.094.067-.203.258-.239.422-.039.168-.109.328-.16.36-.054.03-.273.336-.488.68a29.18 29.18 0 0 1-1.582 2.183c-.18.223-.324.437-.324.477 0 .035-.192.265-.426.515-.234.246-.473.57-.527.719-.114.305-.696.984-2.028 2.367-.511.527-.93.996-.93 1.043 0 .043-.601.68-1.335 1.41-1.399 1.387-1.54 1.52-2.211 2.063-.227.183-.84.738-1.364 1.23-.93.875-2.254 1.946-3.054 2.469-.219.144-.586.414-.813.598-.226.183-.453.336-.508.336-.054 0-.187.097-.293.214-.168.188-.66.551-1.132.832-.086.055-.274.172-.41.262a3.31 3.31 0 0 1-.59.277c-.188.067-.407.211-.485.32-.074.11-.176.2-.222.2-.094 0-1.008.543-1.473.879-.176.121-.344.223-.375.223-.031 0-.32.183-.637.402-.316.223-.668.402-.777.402-.113 0-.363.11-.559.239-.191.132-.543.3-.773.367-.235.07-.473.187-.535.261-.063.075-.153.137-.203.137-.137 0-1.715.719-1.887.86-.082.066-.375.19-.653.273a5.676 5.676 0 0 0-.8.309c-.164.09-.364.16-.446.16-.078 0-.324.09-.55.195-.43.207-1.02.434-1.758.676-.25.078-.633.234-.852.344a6.82 6.82 0 0 1-.953.351c-.543.152-.781.215-2.754.703-.55.14-1.297.34-1.656.446-.703.21-2.215.476-4.508.793-.797.113-1.836.27-2.305.351-.496.086-2.148.191-3.957.25-3.738.125-85.964.113-89.523-.008Zm7.672-52.98c.273-.082 1.004-.215 1.625-.301.617-.082 1.207-.195 1.3-.246.098-.047.512-.145.926-.207.415-.066 1-.191 1.301-.277.305-.086.824-.215 1.153-.286.59-.129 1.156-.296 2.054-.609.25-.086.742-.223 1.098-.305.355-.078.7-.187.762-.238.105-.09.941-.39 2.09-.758.273-.09.59-.219.703-.293.113-.074.398-.183.629-.242.472-.125 1.03-.547 1.03-.777 0-.086-.132-.547-.292-1.031-.16-.481-.477-1.57-.703-2.422a85.53 85.53 0 0 0-.551-1.996 49.484 49.484 0 0 1-.453-1.653 37.304 37.304 0 0 0-.508-1.804 16.777 16.777 0 0 1-.336-1.254c-.285-1.27-.582-2.356-.71-2.606-.075-.14-.165-.48-.208-.758a5.374 5.374 0 0 0-.258-.976c-.105-.266-.187-.582-.187-.703 0-.215-.297-1.32-.719-2.657-.106-.343-.234-.84-.281-1.101-.051-.262-.25-1.063-.446-1.781a139.93 139.93 0 0 1-.52-1.954 91.128 91.128 0 0 0-.886-3.16 42.553 42.553 0 0 1-.715-2.742c-.082-.351-.21-.758-.285-.906-.074-.145-.168-.492-.21-.766a4.784 4.784 0 0 0-.255-.949 6.377 6.377 0 0 1-.289-1.043c-.054-.324-.144-.64-.195-.703-.05-.063-.16-.477-.246-.922-.086-.445-.2-.922-.254-1.055-.055-.132-.262-.918-.457-1.746a56.499 56.499 0 0 0-.465-1.855c-.14-.473-.672-2.48-.898-3.406-.45-1.829-.688-2.715-.754-2.825-.04-.066-.153-.484-.246-.93-.098-.445-.246-.992-.332-1.21a2.632 2.632 0 0 1-.16-.73c-.524-1.184-.649-3.063-1.165-4.169-.074-.16-.187-.566-.246-.906a8.458 8.458 0 0 0-.289-1.117c-.191-.516-.418-1.352-.648-2.406-.16-.715-.489-1.961-1.059-4.008a57.482 57.482 0 0 1-.55-2.106c-.133-.625-.43-1.734-.766-2.86a53.87 53.87 0 0 1-.348-1.253 58.288 58.288 0 0 0-.406-1.504c-.137-.5-.317-1.176-.399-1.508a38.932 38.932 0 0 0-.34-1.254 60.44 60.44 0 0 1-.703-2.605c-.101-.414-.25-.957-.332-1.203-.082-.25-.191-.676-.25-.953-.117-.59-.543-2.235-.812-3.16a8.994 8.994 0 0 1-.258-1.153c-.039-.277-.113-.578-.16-.672-.05-.093-.164-.543-.25-.996-.086-.453-.242-.996-.352-1.207-.171-.344-.234-.383-.57-.383-1.086 0-7.66 1.352-9.289 1.907l-1 .343a48.25 48.25 0 0 1-1.105.356c-.329.101-.915.308-1.301.457-.387.148-.906.344-1.153.433-.25.094-.753.301-1.128.465-.649.285-.676.309-.672.649 0 .195.109.578.246.855.136.278.246.649.25.832 0 .18.094.504.203.723.11.215.2.48.2.594 0 .109.112.558.253 1.004.14.44.34 1.18.445 1.632.106.457.305 1.239.438 1.735.668 2.445.91 3.36 1.035 3.945.078.352.2.758.277.902.075.149.168.493.207.77.04.273.153.683.25.914.098.227.211.656.25.953.61 2.418 1.364 4.809 1.961 7.207.102.414.274 1.09.38 1.504.109.414.269 1.043.355 1.402.156.637.359 1.399.914 3.461.148.551.347 1.34.445 1.754.098.414.25.922.34 1.125.09.207.164.524.168.703.887 2.41 1.195 5.403 2.105 7.75.067.164.2.641.297 1.051.098.414.223.89.281 1.055.122.34.47 1.683.692 2.656.082.36.234.926.336 1.254.101.332.25.894.332 1.254.262 1.133.465 1.93.715 2.758.129.441.265.98.3 1.199.036.219.125.512.196.652.07.14.16.457.195.707.313 1.739 1.176 3.625 1.457 5.332.05.313.156.696.234.852.079.156.172.465.211.683.036.223.153.696.258 1.055.266.887.582 2.121.75 2.91.078.356.207.832.285 1.051.079.223.22.762.313 1.203.187.875.613 2.531.773 3.008.153.45.578 2.035.707 2.61.059.273.215.824.344 1.218.129.395.238.84.238.985 0 .144.09.437.2.656.109.215.199.472.199.574 0 .102.07.43.156.73.441 1.57.664 2.399.758 2.805.055.25.172.7.262 1.004.086.3.21.82.277 1.152.066.332.203.918.3 1.305.102.387.22.863.266 1.063.137.578.688.726 1.645.449Zm40.773-10.594a71.75 71.75 0 0 0 9.317-2.89 5.21 5.21 0 0 1 .777-.258c.543-.114.45-1.211-.129-1.512-2.183-1.727-2.562-2.246-4.004-3.715-3.96-4.039-6.66-6.863-6.793-7.117-.07-.137-.168-.246-.215-.246-.097 0-.265-.172-1.585-1.59-.481-.516-.977-.977-1.098-1.023-.121-.047-.328-.258-.465-.47-.133-.206-.867-1.019-1.633-1.8-.762-.781-2.332-2.402-3.492-3.598-1.156-1.199-2.77-2.86-3.586-3.695-.82-.832-1.555-1.64-1.637-1.797a.933.933 0 0 0-.445-.387c-.496-.171-.508-.714-.047-2.187.266-.86.524-1.832.672-2.559a8.31 8.31 0 0 1 .293-1.004c.102-.273.23-.8.29-1.164.058-.367.167-.816.241-1.004.078-.183.172-.585.215-.886.04-.305.156-.711.262-.903.101-.191.187-.527.187-.746 0-.218.086-.582.188-.804.105-.223.242-.746.304-1.16.063-.415.2-1.024.305-1.352.102-.332.371-1.414.598-2.41.41-1.801.531-2.309.96-4.008.427-1.68.575-2.309.669-2.809.05-.277.164-.707.25-.953.086-.25.199-.722.25-1.055.054-.328.18-.757.277-.953.102-.191.215-.597.254-.902.04-.3.152-.734.25-.957.094-.223.207-.629.246-.902.04-.274.16-.668.266-.88.265-.519.468-1.73.328-1.952-.203-.329-.656-.286-3.992.398-.551.11-1.43.285-1.953.387-.524.097-1.09.234-1.254.297-.164.066-.637.183-1.043.261-.41.079-.797.188-.86.239-.062.054-.449.168-.851.254-.407.082-.79.195-.848.246-.059.047-.332.144-.61.21-.273.067-.609.176-.75.243a4.669 4.669 0 0 1-.699.234c-.25.063-.628.203-.847.317-.219.109-.48.203-.582.203-.102 0-.348.086-.555.187a3.196 3.196 0 0 1-.793.258c-.23.04-.469.133-.531.207-.063.078-.34.211-.61.305-.582.191-.753.414-.843 1.097a10.11 10.11 0 0 1-.196 1.004c-.074.274-.187.817-.25 1.203-.109.676-.289 1.54-.703 3.36-.11.469-.27 1.234-.355 1.703a77.891 77.891 0 0 1-.695 3.21c-.086.36-.227 1.013-.31 1.454a14.711 14.711 0 0 1-.3 1.273 8.883 8.883 0 0 0-.246 1.227c-.05.418-.164.894-.25 1.059-.082.164-.18.582-.215.925-.035.348-.14.836-.238 1.082-.098.25-.207.746-.246 1.102-.04.36-.137.789-.215.953-.082.164-.195.64-.25 1.05-.059.415-.168.9-.242 1.079-.074.18-.18.656-.238 1.055-.055.402-.165.91-.243 1.132a5.68 5.68 0 0 0-.21.954c-.04.3-.157.886-.262 1.3a33.493 33.493 0 0 0-.348 1.606c-.09.469-.273 1.316-.414 1.883-.348 1.422-.305 1.625.547 2.43.367.347.894.89 1.172 1.202.945 1.079 4.097 4.301 4.328 4.422a.668.668 0 0 1 .289.313c.031.105.398.539.812.96.414.427.797.9.856 1.052.058.168.254.359.484.476.211.106.418.258.465.332a.87.87 0 0 0 .293.25c.129.067.238.25.277.457.055.278.133.371.391.457.176.059.457.274.621.477.164.199.48.527.703.722.219.2.555.536.75.754.192.215.633.68.977 1.035.344.356 1.207 1.262 1.914 2.016.707.754 1.7 1.797 2.207 2.32 1.516 1.567 3.422 3.551 3.559 3.711.07.082.304.317.519.516.215.203.91.918 1.543 1.59 2.5 3.441 5.703 2.152 9.07 1.2Zm20.852-6.055a20.439 20.439 0 0 1 1.52-.207c.398-.035.874-.125 1.05-.199 2.41-.598 5.414-.918 7.66-1.992.157-.082.465-.18.684-.219.219-.043.484-.12.598-.18.109-.058.535-.226.949-.375 2.851-1.019 2.82-.996 2.449-1.878-1.875-7.778-5.262-17.422-7.105-26.246-.063-.329-.176-.704-.243-.833-.066-.125-.168-.503-.218-.835-.055-.332-.16-.704-.235-.82-.074-.122-.187-.52-.25-.888-.062-.367-.18-.796-.258-.953a1.5 1.5 0 0 1-.152-.546c0-.149-.105-.688-.238-1.204-.336-1.316-.602-4.023-.531-5.43.082-1.613.242-2.761.46-3.28.102-.25.22-.645.258-.876.04-.234.149-.527.246-.652.098-.125.207-.351.243-.504.039-.152.113-.277.171-.277.055 0 .188-.203.293-.45.106-.25.239-.453.297-.453.055 0 .192-.18.305-.398.11-.219.324-.465.477-.543.152-.078.453-.34.668-.578.382-.422 1.3-1.086 1.5-1.086.05 0 .167-.062.253-.137.086-.074.317-.191.508-.265.192-.075.418-.192.504-.262.082-.07.344-.172.582-.227.238-.05.508-.164.602-.25.094-.086.375-.187.62-.222.247-.04.673-.16.95-.274.418-.168.742-.203 2.012-.21 1.054-.008 1.554.027 1.66.113.082.066.375.172.656.23.278.063.656.219.84.356.18.132.39.246.469.246.183 0 1.402 1.175 1.59 1.53.082.157.324.466.539.688.218.223.504.594.64.825.57.972 1.274 2.332 1.328 2.566.036.14.153.438.262.656.23.453.594 1.489.871 2.457.102.36.254.832.34 1.055.086.219.156.535.16.703 0 .168.074.406.164.531.086.125.223.594.301 1.04.078.449.184.867.238.933.055.066.164.461.246.879 2.27 8.695 5.043 17.867 6.93 26.047.645 2.847.695 3.031.942 3.23.16.13.328.176.496.14.14-.03.683-.1 1.207-.163.523-.059 1.27-.192 1.652-.293a9.958 9.958 0 0 1 1.328-.25c.344-.035.774-.125.953-.2.18-.074.664-.19 1.078-.257.41-.07.864-.184 1.004-.254.137-.07.52-.18.852-.238a8.294 8.294 0 0 0 1.098-.297c.82-.305 1.468-.52 2.054-.672.305-.082.637-.195.738-.254.188-.105 1.008-.402 2.325-.832.957-.316 1.097-.402 1.25-.77.117-.28.101-.41-.149-1.183a54.236 54.236 0 0 1-.96-3.274c-1.97-7.32-3.895-14.238-5.79-21.625-.105-.421-.222-.812-.258-.867-.03-.054-.128-.43-.214-.836-.082-.406-.215-.875-.29-1.039-.382-1.082-.523-2.558-.96-3.597a4.116 4.116 0 0 1-.246-.864 8.697 8.697 0 0 0-.258-1.054c-.45-1.414-.7-2.325-.703-2.559 0-.137-.09-.43-.196-.652-.105-.22-.195-.504-.195-.63-.008-.491-1.367-4.484-1.902-5.585-.11-.223-.38-.785-.606-1.254a21.32 21.32 0 0 0-.703-1.356 9.803 9.803 0 0 1-.402-.738c-.055-.133-.309-.508-.559-.84-.25-.328-.484-.672-.516-.761-.035-.094-.312-.461-.613-.817-.3-.36-.633-.789-.734-.953-.098-.168-.344-.414-.547-.555-.2-.136-.54-.437-.758-.668-.219-.23-.707-.628-1.09-.882-.383-.258-.691-.504-.691-.551 0-.047-.156-.137-.344-.2-.187-.062-.402-.183-.469-.269-.07-.086-.468-.308-.886-.504-.418-.191-.891-.41-1.059-.488a12.75 12.75 0 0 0-1.953-.656c-.246-.055-.832-.2-1.3-.32-.77-.196-1.106-.22-3.407-.22-2 .005-2.719.04-3.309.169-.414.09-1.156.218-1.652.285-.496.066-1.059.183-1.254.265-.191.082-.633.188-.98.239-.344.05-.727.156-.852.234a2.026 2.026 0 0 1-.57.203c-.989.18-3.719 1.594-5.383 2.785-.18.125-.488.344-.688.48-.199.137-.683.524-1.078.86-.394.332-.793.637-.886.672-.094.035-.247.21-.34.395-.094.18-.301.476-.457.66-.157.18-.285.363-.285.406 0 .043-.227.3-.5.574-.278.274-.5.559-.504.637 0 .078-.196.46-.438.851-.648 1.059-1.308 2.41-1.558 3.192-.067.207-.16.398-.208.426-.046.03-.113.246-.152.48-.105.645-.316 1.07-.57 1.164-.32.125-.55-.027-.633-.414-.039-.18-.129-.394-.2-.476-.07-.082-.25-.512-.402-.954-.605-1.796-2.125-4.96-2.632-5.5l-.27-.28-1.004.07c-.55.035-1.152.128-1.336.203-.183.078-.91.207-1.613.289-.703.082-1.41.199-1.566.257a7.64 7.64 0 0 1-.891.243c-.773.168-2.3.62-2.55.754-.106.058-.794.312-1.528.566-2.567.887-2.488.852-2.653 1.168-.132.262-.136.352-.003.762.078.257.289.941.464 1.52.172.577.426 1.402.563 1.827.133.426.242.864.242.973 0 .11.086.418.188.68.105.265.242.793.308 1.172.067.382.18.812.25.953.074.144.168.465.207.71.043.25.153.657.25.903.098.25.211.7.25 1.004.04.305.137.625.219.715.078.09.191.472.25.851.059.38.168.813.246.965.078.149.203.602.281 1 .078.402.211.867.297 1.031.09.168.16.442.16.61 0 .172.086.578.196.902.105.328.285.98.398 1.45.113.468.32 1.257.457 1.753.246.895.746 2.79.961 3.66.063.246.215.813.344 1.254.262.922.406 1.457.613 2.305.082.332.238.875.344 1.203.11.332.2.695.2.805 0 .11.089.449.198.75.11.304.266.886.344 1.293.082.406.195.797.254.867.059.07.152.398.207.73.05.332.184.797.293 1.04.11.238.2.546.203.683 0 .14.176.906.39 1.707.212.797.575 2.176.81 3.059.23.882.53 1.972.663 2.422.133.449.239.91.239 1.023 0 .113.09.426.195.7.105.269.242.765.305 1.1.058.337.191.805.293 1.04.105.238.214.676.254.969.035.296.125.636.199.753.074.118.16.442.191.715.028.278.145.707.254.953.11.25.23.676.27.954.039.277.132.628.214.785.079.156.207.62.286 1.035.082.418.171.8.207.855.078.125.5 1.73.687 2.614.078.375.211.914.293 1.207.2.691.461 1.886.461 2.09 0 .21.379.69.547.69.074 0 .488-.065.918-.144Zm49.883-87.011c.277-.051.75-.16 1.05-.243.301-.082.668-.152.817-.152.148 0 .555-.09.906-.2.348-.112.961-.245 1.36-.3.402-.05.859-.16 1.015-.242.156-.082.559-.195.895-.246.332-.055.734-.164.89-.246.157-.082.508-.18.785-.223.274-.039.665-.156.872-.258.203-.105.472-.191.601-.191.125-.004.41-.078.629-.164.219-.086.695-.238 1.05-.336.973-.274 3.524-1.192 3.778-1.356.285-.187.375-.5.242-.832-.058-.148-.172-.789-.254-1.422-.078-.632-.21-1.312-.293-1.503-.078-.192-.18-.621-.218-.954a8.784 8.784 0 0 0-.25-1.203 15.037 15.037 0 0 1-.301-1.203c-.066-.332-.16-.652-.211-.719-.05-.062-.14-.39-.195-.73-.055-.34-.188-.785-.293-.988-.11-.203-.2-.492-.2-.649 0-.152-.113-.547-.25-.875-.136-.328-.25-.691-.25-.804 0-.114-.09-.375-.195-.582a8.744 8.744 0 0 1-.406-1.02c-.508-1.531-.555-1.637-.871-1.879-.281-.215-.367-.234-.653-.144-.183.054-.738.156-1.234.218-.492.067-1.059.176-1.25.246-.191.07-.734.18-1.203.25-.469.067-1.168.204-1.55.305-.388.102-.95.215-1.255.254-.304.04-.695.129-.867.2-.176.07-.574.183-.887.25a5.64 5.64 0 0 0-.984.304c-.23.105-.531.191-.672.191-.137.004-.406.086-.598.188a5.202 5.202 0 0 1-.851.316c-.277.074-.559.176-.629.23-.066.055-.406.18-.75.278-1.043.3-1.73.54-1.977.684a4.537 4.537 0 0 1-.597.226c-.711.219-.793.457-.57 1.66.101.543.222 1.278.269 1.637.156 1.137.496 2.816.844 4.16.187.719.367 1.453.406 1.633a3.1 3.1 0 0 0 .215.633c.086.168.18.496.207.726.027.23.133.555.23.72.098.167.211.484.25.702.036.223.145.516.246.657.098.14.211.402.25.586.067.304.227.695.782 1.917.113.247.246.504.297.575.101.129.867.093 1.828-.082Zm-188.512 142.5c-1.926-.082-4.559-.653-5.66-1.227a27.015 27.015 0 0 0-.957-.445c-.805-.36-2.281-1.328-2.942-1.93-1.101-1.008-2.246-2.207-2.765-2.894a51.54 51.54 0 0 0-.653-.848c-.144-.16-.957-1.48-1.222-1.98a3.608 3.608 0 0 0-.367-.579c-.079-.09-.196-.355-.258-.586-.063-.234-.153-.449-.203-.48-.118-.07-.532-.973-.965-2.106-.192-.496-.406-1.015-.485-1.152-.074-.14-.207-.5-.289-.805a11.419 11.419 0 0 0-.347-1.05c-.266-.676-.696-2.024-.782-2.457a1.883 1.883 0 0 0-.191-.551c-.066-.113-.176-.457-.242-.766a4.583 4.583 0 0 0-.313-.949c-.109-.211-.199-.523-.199-.691-.004-.168-.113-.532-.25-.805-.137-.277-.246-.629-.246-.781a1.855 1.855 0 0 0-.191-.653 3.388 3.388 0 0 1-.258-.824c-.043-.246-.137-.55-.215-.676-.078-.12-.207-.504-.285-.851a18.434 18.434 0 0 0-.301-1.13 68.37 68.37 0 0 1-.703-2.308c-.363-1.3-.762-2.566-1.008-3.207a44.719 44.719 0 0 1-.45-1.219c-.1-.285-.25-.625-.331-.753a1.954 1.954 0 0 1-.215-.555c-.035-.176-.129-.367-.203-.434-.078-.062-.195-.281-.258-.48a2.964 2.964 0 0 0-.289-.621 5.427 5.427 0 0 1-.285-.5c-.07-.14-.258-.453-.418-.703a14.608 14.608 0 0 1-.516-.852c-.273-.508-2.511-2.727-3.082-3.059a6.886 6.886 0 0 1-.695-.464 2.099 2.099 0 0 0-.516-.29 2.282 2.282 0 0 1-.504-.257c-.136-.102-.613-.325-1.05-.496a34.44 34.44 0 0 1-1.368-.555c-.308-.133-.613-.246-.675-.246-.059 0-.391-.086-.739-.192a20.333 20.333 0 0 0-1.73-.398c-1.469-.277-1.543-.344-1.762-1.488-.097-.5-.222-1.004-.285-1.114-.176-.332-.125-.613.215-1.132.2-.309.414-.516.574-.555.383-.094.723-.375 1.863-1.54 1.88-1.913 3.188-4.171 3.88-6.683l.323-1.187-.003-2.559c-.004-2.062-.036-2.687-.176-3.238-.094-.375-.168-.852-.168-1.055 0-.418-.27-1.847-.653-3.476-.14-.61-.351-1.532-.46-2.059-.114-.523-.27-1.2-.344-1.504-.48-1.898-.735-3.023-.793-3.5-.035-.297-.133-.664-.211-.816-.078-.153-.172-.543-.207-.864-.04-.32-.145-.789-.242-1.039a5.224 5.224 0 0 1-.25-1.054c-.04-.328-.137-.754-.215-.95-.082-.19-.215-.757-.297-1.253a15.193 15.193 0 0 0-.285-1.403c-.074-.277-.192-.969-.254-1.543-.063-.57-.156-1.152-.207-1.293-.18-.468-.317-3.465-.258-5.64.047-1.72.098-2.29.254-2.828.11-.375.227-.938.266-1.254.039-.32.128-.672.199-.79.07-.113.199-.43.285-.699.254-.824.672-1.761 1.078-2.433.215-.352.387-.672.387-.715 0-.043.136-.254.297-.465.754-.996 1.078-1.348 1.328-1.45a.761.761 0 0 0 .37-.413c.06-.164.204-.375.321-.473a1.26 1.26 0 0 0 .328-.512c.086-.257.2-.363.496-.464.211-.075.614-.325.895-.563.957-.8 4.371-2.727 5.383-3.035.14-.043.41-.16.601-.266.192-.101.418-.187.5-.187.086-.004.38-.117.653-.25.277-.137.558-.25.632-.25.07 0 .297-.082.5-.188.204-.101.575-.215.825-.254.25-.035.582-.132.742-.214.273-.141.71-.274 2.687-.805.48-.13.961-.281 1.07-.34.106-.059.298-.105.419-.105.125 0 .367-.051.543-.114.422-.152.851.051.972.465.047.168.192.527.32.805.13.273.31.656.395.851.09.192.23.575.309.852.078.277.261.84.406 1.254.422 1.191.937 3.25 1.156 4.613.113.688.246 1.41.301 1.606.055.191.125.718.16 1.168l.063.816-.387.2c-.215.109-.836.296-1.379.413-.547.117-1.062.254-1.152.301-.09.043-.403.137-.692.207-.289.066-.55.16-.578.211-.031.047-.246.137-.476.2-.235.062-.512.19-.622.292-.113.098-.312.211-.449.254a.983.983 0 0 0-.422.3.925.925 0 0 1-.457.278c-.535.11-1.793 1.559-2.093 2.418-.078.219-.184.45-.243.52-.054.066-.171.746-.257 1.511-.141 1.274-.141 1.532.015 3.094.094.938.235 1.863.313 2.055.082.195.187.691.242 1.101.05.414.184 1.012.293 1.332.113.317.203.723.203.903 0 .18.09.52.2.758.105.234.222.664.261.949.035.289.148.75.246 1.023.098.278.234.797.3 1.156.067.356.169.743.227.852.055.11.176.563.27 1.004.094.441.312 1.477.484 2.305.172.828.364 1.73.422 2.004.223 1.054.504 2.757.653 3.964.082.688.195 1.41.25 1.602.187.684.293 2.18.289 4.164 0 1.961-.063 2.566-.438 4.363-.273 1.32-1.066 3.301-1.46 3.66-.114.098-.204.239-.204.31 0 .112-1.223 1.573-1.578 1.882-.645.562-1.313 1.305-1.367 1.516-.114.46.082.652.672.656.722.004 1.57.238 2.925.812 1.711.727 2.473 1.219 3.657 2.348.468.45.925.844 1.015.875.09.031.192.223.23.426.044.222.208.507.419.715.187.19.457.515.593.718.133.203.32.485.415.621l.332.5c.093.141.226.418.293.621.066.204.183.418.261.485.074.062.164.242.2.402.035.156.124.336.203.399.074.066.21.336.296.601.09.27.227.54.301.602.078.062.168.246.203.406.035.156.223.664.418 1.121.192.457.422 1.055.508 1.332.086.277.219.602.297.719.078.121.203.437.277.703.078.266.368 1.148.645 1.96.281.817.508 1.552.508 1.638 0 .086.093.355.203.605.113.246.246.637.297.871.047.235.156.606.242.824.082.223.156.516.16.653.004.137.094.441.2.676.105.234.238.671.292.976.055.3.164.676.242.828.079.153.176.504.215.778.04.273.137.625.219.78.078.153.188.524.246.829.055.3.188.742.293.977.106.23.195.566.195.742 0 .172.094.531.203.789.114.262.36.953.555 1.539.192.586.414 1.2.492 1.363.082.168.239.504.348.754.113.246.258.543.328.652.07.11.262.426.426.703.805 1.34 1.574 2.106 2.746 2.727.793.426.961.473 2.02.594.98.11 1.359.105 2.554-.02.797-.09 1.598-.234 1.852-.34.25-.101.656-.218.902-.257.246-.04.606-.157.8-.262.192-.102.544-.188.782-.188.406 0 .442.024.582.375.082.207.215.496.293.645.082.144.149.324.149.398 0 .075.105.36.238.637.46.973.824 2.082 1.508 4.613.133.496.265 1.063.297 1.254.03.196.195 1.145.367 2.117.261 1.497.293 1.829.199 2.18-.145.535-.336.649-1.559.91a27.19 27.19 0 0 0-1.3.309 8.85 8.85 0 0 1-.703.156c-.22.035-.672.145-1 .242-.333.098-.817.211-1.083.246-.261.04-.625.133-.8.207-.176.075-.774.184-1.325.247-.55.062-1.406.203-1.902.308-1.02.219-2.86.285-5.16.188Zm242.578-63.692c-.137-.074-.3-.3-.379-.523-.074-.215-.195-.465-.273-.551-.074-.086-.172-.309-.211-.5a3.65 3.65 0 0 0-.313-.789c-.129-.25-.238-.54-.238-.648 0-.106-.066-.313-.144-.461-.16-.282-.848-2.707-1.102-3.875-.254-1.157-.758-4.254-.758-4.66 0-.434.129-.579.613-.669.188-.035.454-.12.59-.19.137-.067.5-.153.801-.192a4.606 4.606 0 0 0 1.004-.25c.246-.102.789-.313 1.2-.465.413-.156.82-.332.901-.399.086-.062.297-.168.477-.226.426-.14 1.711-1.113 2.145-1.617.554-.645.886-1.133.886-1.305 0-.086.086-.32.196-.52.226-.425.277-.699.398-2.043.07-.789.047-1.363-.105-2.691-.102-.93-.239-1.781-.301-1.898-.063-.118-.153-.575-.203-1.02a10.547 10.547 0 0 0-.282-1.46c-.101-.36-.218-.856-.257-1.106-.04-.246-.13-.567-.204-.711-.074-.145-.183-.559-.238-.918-.058-.36-.168-.805-.242-.989-.078-.187-.195-.656-.266-1.039-.07-.386-.168-.789-.222-.89-.051-.102-.18-.578-.281-1.051l-.348-1.57c-.09-.387-.293-1.266-.45-1.957a46.206 46.206 0 0 1-.394-1.856 47.353 47.353 0 0 0-.203-1.078 21.638 21.638 0 0 1-.207-1.355c-.059-.48-.18-1.235-.274-1.676-.136-.653-.167-1.41-.171-4.063-.004-3.164.004-3.297.265-4.511.38-1.758.946-3.184 1.688-4.235.168-.234.41-.586.539-.781.285-.43 1.918-2.063 2.277-2.277.149-.09.313-.317.375-.52.149-.484.024-.566-1-.652-.445-.035-.976-.137-1.176-.219a6.088 6.088 0 0 0-.816-.254c-.398-.09-.703-.21-1.703-.68-.508-.238-.867-.476-1.586-1.039-.406-.32-.863-.644-1.02-.726-.16-.082-.312-.227-.343-.324-.032-.098-.262-.403-.508-.676-.25-.274-.453-.551-.453-.614 0-.066-.192-.324-.426-.574a6.804 6.804 0 0 1-.766-1.039c-.187-.32-.414-.691-.5-.82-.5-.746-1.996-3.668-2.418-4.727a57.54 57.54 0 0 1-.91-2.41c-.105-.3-.234-.64-.289-.75-.055-.11-.187-.515-.289-.902a65.075 65.075 0 0 0-.504-1.707 56.9 56.9 0 0 1-.512-1.742c-.109-.407-.246-.797-.3-.868-.059-.07-.133-.367-.164-.664-.032-.293-.122-.636-.2-.757-.074-.125-.203-.543-.285-.934-.082-.39-.21-.828-.285-.98-.078-.149-.168-.47-.207-.708a2.838 2.838 0 0 0-.215-.73c-.086-.16-.2-.55-.258-.863-.058-.317-.164-.688-.238-.828-.074-.141-.18-.52-.242-.848-.059-.324-.168-.684-.242-.8-.078-.114-.211-.434-.297-.708-.086-.277-.301-.887-.473-1.355-.172-.47-.387-1.055-.473-1.305-.085-.246-.21-.52-.277-.602a1.96 1.96 0 0 1-.238-.496 1.924 1.924 0 0 0-.297-.55 7.885 7.885 0 0 1-.523-.758c-.356-.567-1.461-1.703-1.66-1.703-.063 0-.169-.07-.239-.153-.066-.082-.348-.215-.625-.297-.277-.082-.558-.199-.633-.257-.07-.059-.593-.157-1.164-.215-1.254-.125-3.64.035-4.11.277-.163.086-.57.2-.905.254-.336.055-.801.187-1.04.293-.234.11-.628.195-.874.195-.47 0-.567-.093-.567-.55a.67.67 0 0 0-.176-.41c-.097-.094-.25-.38-.34-.634a95.87 95.87 0 0 0-.43-1.164 37.121 37.121 0 0 1-1.194-3.859c-.454-1.863-1.004-5.094-.95-5.555.047-.41.383-.613 1.535-.922.98-.261 1.551-.394 3.61-.84.55-.12 1.226-.28 1.504-.359.273-.078 1.02-.203 1.652-.281.633-.082 1.285-.203 1.453-.27.2-.082 1.188-.14 2.906-.171 2.512-.047 2.657-.04 4.106.226.828.149 1.656.336 1.844.414.187.074.617.211.949.297.625.16 2.617 1.11 3.05 1.453.137.106.294.192.348.192.055 0 .29.156.524.343.23.192.64.516.91.723.605.457 2.344 2.195 2.344 2.34 0 .055.3.465.672.906.68.817 1.007 1.297 1.28 1.875.083.172.192.344.243.375.055.031.148.227.215.434.066.207.2.465.297.574.097.113.21.316.254.453.039.137.156.36.261.488.102.133.184.34.184.465 0 .121.086.332.191.465.102.129.235.395.293.59.114.387.637 1.664.805 1.96.059.106.172.419.254.696.082.274.351 1.055.605 1.73.254.68.457 1.31.457 1.407 0 .094.075.305.157.469.086.164.207.527.265.804.059.278.192.672.293.88.106.206.219.59.254.85.035.263.14.634.238.829.094.191.227.61.293.926.067.316.157.597.204.629.05.027.14.308.207.625.066.312.18.66.25.773.074.113.18.477.23.809.055.328.172.734.258.902.086.164.156.367.156.45 0 .16.297 1.14 1.168 3.862.547 1.711 1.356 3.875 1.8 4.813.134.277.24.539.24.582 0 .043.085.2.187.348.101.152.328.5.5.773a14.823 14.823 0 0 0 1.64 2.164c.262.274.547.637.633.8.086.169.274.349.414.403.14.055.512.29.82.524.532.398.793.574 1.766 1.195.844.535 2.543 1.191 3.711 1.434.328.066.781.172 1 .23.219.059.754.137 1.188.176 1.027.094 1.37.36 1.562 1.219.07.32.215.847.316 1.172.247.769.243.867-.086 1.195-.418.418-2.335 1.976-2.437 1.976-.047 0-.164.145-.254.325-.09.18-.351.546-.578.82-.664.797-1.465 1.902-1.465 2.023 0 .059-.086.188-.191.282a1.065 1.065 0 0 0-.258.441 1.87 1.87 0 0 1-.235.52c-.32.48-.652 1.437-1.164 3.359-.328 1.246-.296 5.379.051 6.59.051.18.164.758.246 1.285.086.523.243 1.336.352 1.805.11.468.336 1.484.5 2.254.328 1.542.715 3.199 1.012 4.363.109.414.234 1 .28 1.304.052.305.184.832.302 1.176.113.344.207.75.207.91 0 .16.086.54.191.848.106.309.223.82.258 1.145.035.32.152.879.254 1.234.219.746.547 2.621.758 4.312.078.637.199 1.403.265 1.707.09.383.13 1.551.13 3.81 0 3.093-.013 3.3-.227 4.01-.125.411-.227.888-.227 1.052-.004.168-.094.484-.2.707-.105.218-.195.472-.195.558-.003.09-.109.36-.238.602a4.42 4.42 0 0 0-.308.734c-.04.164-.16.406-.266.543-.106.133-.195.324-.195.418 0 .098-.09.29-.203.434-.114.144-.254.41-.317.59-.062.183-.207.43-.324.546a8.86 8.86 0 0 0-.602.782c-.23.332-.492.586-.636.625-.149.035-.297.187-.38.382-.132.317-1.355 1.657-1.515 1.657-.043 0-.215.117-.383.261a7.76 7.76 0 0 1-.699.528c-.219.144-.445.3-.5.344-.32.261-1.875 1.144-2.957 1.671-.687.34-1.41.7-1.602.797a3.492 3.492 0 0 1-.703.258c-.191.04-.507.156-.699.258-.531.277-1.594.672-2.14.793-.266.058-1.012.281-1.653.496-.64.21-1.348.418-1.57.457-.219.04-.715.176-1.102.3-.976.317-1.453.384-1.742.231Zm0 0"></path></svg>